<?xml version="1.0" encoding="UTF-8"?><svg id="Layer_2" xmlns="http://www.w3.org/2000/svg" viewBox="0 0 242.7 250.29"><defs><style>.cls-1{fill:none;stroke:#bed8ec;stroke-miterlimit:10;stroke-width:4px;}</style></defs><g id="Layer_1-2"><g><ellipse class="cls-1" cx="121.2" cy="128.35" rx="12.75" ry="12.84"/><path class="cls-1" d="M122.22,61.33c0-31.27,11.57-59.33,3.69-59.33s-3.69,28.07-3.69,59.33-8.88,54-1,54,1-22.73,1-54Z"/><path class="cls-1" d="M150.17,69.6c10.77-29.36,31.3-51.72,23.9-54.43s-13.13,25.08-23.9,54.43c-10.77,29.36-26.93,47.64-19.54,50.35,7.4,2.71,8.77-21,19.54-50.35Z"/><path class="cls-1" d="M183.35,102.57c27.94-14.05,58.21-16.32,54.67-23.36s-26.73,9.31-54.67,23.36c-27.94,14.05-52.23,16.32-48.69,23.36,3.54,7.04,20.76-9.32,48.69-23.36Z"/><path class="cls-1" d="M184.35,149.27c30.15,8.28,54.16,26.86,56.24,19.26,2.09-7.6-26.09-10.99-56.24-19.26-30.15-8.28-49.72-22.86-51.81-15.26-2.09,7.6,21.66,6.98,51.81,15.26Z"/><path class="cls-1" d="M144.71,190.45c9.38,29.83,6.75,60.07,14.27,57.71,7.52-2.36-4.89-27.88-14.27-57.71-9.38-29.83-7.72-54.18-15.24-51.81-7.52,2.36,5.86,21.99,15.24,51.81Z"/><path class="cls-1" d="M97.23,190.59c-9.39,29.83-28.85,53.12-21.34,55.49,7.52,2.37,11.95-25.66,21.34-55.49,9.39-29.83,24.68-48.84,17.17-51.21-7.52-2.37-7.78,21.38-17.17,51.21Z"/><path class="cls-1" d="M94.02,67.81c-10.77-29.36-31.3-51.72-23.9-54.43s13.13,25.08,23.9,54.43c10.77,29.36,26.93,47.64,19.54,50.35-7.4,2.71-8.77-21-19.54-50.35Z"/><path class="cls-1" d="M61.07,100.76c-27.94-14.05-58.21-16.32-54.67-23.36s26.73,9.31,54.67,23.36c27.94,14.05,52.23,16.32,48.69,23.36-3.54,7.04-20.76-9.32-48.69-23.36Z"/><path class="cls-1" d="M58.35,148.76c-30.15,8.28-54.16,26.86-56.24,19.26-2.09-7.6,26.09-10.99,56.24-19.26,30.15-8.28,49.72-22.86,51.81-15.26,2.09,7.6-21.66,6.98-51.81,15.26Z"/></g></g></svg>